<svg xmlns="http://www.w3.org/2000/svg" xmlns:xlink="http://www.w3.org/1999/xlink" viewBox="0 0 106 106"><defs><style>.cls-1{fill:#5a5a64;}.cls-1,.cls-2,.cls-3,.cls-4{fill-rule:evenodd;}.cls-2,.cls-9{fill:#fff;}.cls-2,.cls-3{fill-opacity:0.38;}.cls-4,.cls-7{fill:#393939;isolation:isolate;}.cls-4{opacity:0.32;}.cls-5{opacity:0.3;}.cls-6{fill:#a8a9ab;}.cls-7{opacity:0.44;}.cls-8{fill:#ff161f;}.cls-10{fill:#00a749;}</style><symbol id="c" data-name="c" viewBox="0 0 106 106"><path class="cls-1" d="M0,106H106V0H0Z"/><path class="cls-2" d="M6.06,104.49H98.43q6.06,0,7.57-3V106H0v-4.54Q1.52,104.49,6.06,104.49Z"/><path class="cls-3" d="M6.06,1.51H98.43q6.06,0,7.57,4.55V0H0V6.06Q1.52,1.51,6.06,1.51Z"/><path class="cls-4" d="M70.38,1.51H6.06C3,1.51,0,3,0,7.57V44.72L28.77,86.31H59.06a77.42,77.42,0,0,1,21.2-13.87c.07-11.31.07-4.86,0-16.17h3.12l.21-36.82Z"/><g class="cls-5"><path d="M68.77,47.46H76c.76,0,1-.12,1-.46V44.55c0-.31-.24-.43-.93-.43H61.44c-.66,0-.92.12-.92.42v2.51c0,.29.26.4.92.41Z"/><path d="M64.33,28.58a7.22,7.22,0,0,0,1-1,.89.89,0,0,0,0-1.26s0,0,0-.05a.93.93,0,0,0-1.3,0l0,0a4.25,4.25,0,0,0-.48.47c-.14.15-.26.31-.49.6-.32-.37-.54-.66-.79-.91-.53-.53-1.08-.58-1.5-.15s-.36.94.15,1.45c.26.26.54.5.91.83-.38.34-.72.61-1,.91a.89.89,0,0,0-.09,1.27l.09.09a.9.9,0,0,0,1.28.08l.08-.08c.29-.28.54-.6.93-1a10.57,10.57,0,0,0,.9,1,.9.9,0,0,0,1.28.08.6.6,0,0,0,.08-.08.87.87,0,0,0,.08-1.23.6.6,0,0,0-.08-.08C65.07,29.21,64.73,28.94,64.33,28.58Z"/><path d="M62.13,39.1v1.28a.93.93,0,0,0,.84,1h.08a.91.91,0,0,0,1-.81.61.61,0,0,0,0-.19v-1.3h1.14a1.15,1.15,0,0,0,1.22-1c0-.55-.42-.85-1.18-.86H64.12V35.88a.94.94,0,0,0-1.88,0v1.3H60.92a.94.94,0,0,0,0,1.88h0A9.34,9.34,0,0,0,62.13,39.1Z"/><path d="M74.31,30H72.23c-.67,0-1,.34-1,.93a.89.89,0,0,0,.76,1,1,1,0,0,0,.24,0h4.35a1,1,0,1,0,0-1.91H74.37Z"/><path d="M74.28,37.39H72.14a.86.86,0,0,0-1,.71,1.21,1.21,0,0,0,0,.19.85.85,0,0,0,.68,1,1,1,0,0,0,.24,0h4.48a.93.93,0,0,0,1-.85v-.15a.91.91,0,0,0-.91-.91H74.28Z"/><path d="M74.36,27.91h2.15a1,1,0,0,0,1-1,.91.91,0,0,0-1-.94H72.28c-.75,0-1.09.32-1.09.94s.37,1,1.09,1Z"/><path d="M81.29,15.45H56.14a4,4,0,0,0-4,4V52.27a4,4,0,0,0,4,4H81.29a4,4,0,0,0,4-4V19.45A4,4,0,0,0,81.29,15.45ZM56.14,52.27V19.45H81.29V52.27Z"/><path d="M43.49,22.74H31.8V80.29H56V69.69q0-4.55,4.54-4.55H75.71V59.36h4.55V71.2c-4.55,3-16.66,12.11-19.69,13.63H30.29a2.68,2.68,0,0,1-3-2.32,2.58,2.58,0,0,1,0-.68V21.23a2.68,2.68,0,0,1,2.32-3,2.58,2.58,0,0,1,.68,0H48.45v4.51ZM60.57,80.29l15.14-10.6H60.57Z"/></g><path class="cls-6" d="M60.57,87.32H30.29a2.68,2.68,0,0,1-3-2.32,2.58,2.58,0,0,1,0-.68V23.72a2.68,2.68,0,0,1,2.32-3,2.58,2.58,0,0,1,.68,0H48.45v4.51H31.8V82.78H56V72.18q0-4.55,4.54-4.55H75.71V61.85h4.55V73.69C75.71,76.72,63.6,85.8,60.57,87.32Zm0-15.14v10.6l15.14-10.6Z"/><path class="cls-6" d="M68.77,50.22H76c.76,0,1-.13,1-.53V46.84c0-.37-.24-.5-.93-.5H61.46c-.66,0-.92.14-.92.48v2.93c0,.34.26.47.92.47Z"/><path class="cls-6" d="M64.33,29.47a6.27,6.27,0,0,0,1-1,.89.89,0,0,0,0-1.26s0,0,0-.05a.93.93,0,0,0-1.3,0l0,0a5.44,5.44,0,0,0-.48.48c-.14.14-.26.31-.49.59-.32-.36-.54-.65-.79-.91-.53-.53-1.08-.57-1.5-.14s-.36.94.15,1.45c.26.26.54.49.91.82-.38.35-.72.61-1,.92a.89.89,0,0,0-.09,1.27l.09.09a.92.92,0,0,0,1.3.06l.06-.06c.29-.28.54-.61.93-1q.42.51.9,1a.9.9,0,0,0,1.28.08.6.6,0,0,0,.08-.08.88.88,0,0,0,.08-1.24l-.08-.08C65.07,30.11,64.73,29.84,64.33,29.47Z"/><path class="cls-6" d="M62.13,40.12v1.29a1,1,0,1,0,1.91,0v-1.3h1.14a1.15,1.15,0,0,0,1.22-1c0-.54-.42-.85-1.18-.85h-1.1V36.92a.94.94,0,0,0-1.88,0v1.3H60.92a.94.94,0,0,0,0,1.88h0Z"/><path class="cls-6" d="M74.31,30.89H72.23c-.7,0-1,.35-1,.94a.89.89,0,0,0,.76,1,1,1,0,0,0,.24,0h4.35a.91.91,0,0,0,1-.81.61.61,0,0,0,0-.19.93.93,0,0,0-.85-1H74.37Z"/><path class="cls-6" d="M74.28,38.24H72.14a.86.86,0,0,0-1,.73,1,1,0,0,0,0,.17.84.84,0,0,0,.66,1,.75.75,0,0,0,.26,0h4.48a.94.94,0,0,0,1-.88v-.12a.91.91,0,0,0-.91-.91H74.28Z"/><path class="cls-6" d="M74.36,28.8h2.15a1,1,0,0,0,1-1,.9.9,0,0,0-1-.93H72.28c-.75,0-1.09.32-1.09.94s.37.94,1.09,1,1.39,0,2.08,0Z"/><path class="cls-6" d="M81.29,17.94H56.14a4,4,0,0,0-4,4V54.76a4,4,0,0,0,4,4H81.29a4,4,0,0,0,4-4V21.94A4,4,0,0,0,81.29,17.94ZM56.14,54.76V21.94H81.29V54.76Z"/></symbol></defs><g id="Layer_2" data-name="Layer 2"><g id="Layer_1-2" data-name="Layer 1"><use width="106" height="106" transform="matrix(1, 0, 0, -1, 0, 106)" xlink:href="#c"/><rect class="cls-7" x="6.27" y="10.57" width="48.45" height="31.57" rx="1"/><rect class="cls-8" x="6.27" y="29.32" width="48.44" height="8.07"/><rect class="cls-8" x="6.27" y="5.09" width="48.44" height="8.07"/><rect class="cls-9" x="6.27" y="13.17" width="48.44" height="16.15"/><path class="cls-10" d="M30.27,13.17a5.13,5.13,0,0,1-1.62,1.72c-.11.09-.36.26-.18.4.16-.18.6.05.35.24A6.32,6.32,0,0,1,28,16a2.51,2.51,0,0,0-.63.43c0,.29.36.13.51.25s-.08.57-.34.48a.84.84,0,0,0-.68.58c-.26.4-.75.52-1.14.74-.22.13-.43.28-.64.43s0,.54.25.45.58-.27.9-.2a.57.57,0,0,1,.27.74,1.65,1.65,0,0,1-.39.52,1.81,1.81,0,0,1-.85.46,1.67,1.67,0,0,0-.77.54,6.59,6.59,0,0,1-.74.66c-.08.22.16.4.36.4.41,0,.7-.37,1.06-.55a.44.44,0,0,1,.57.5c0,.3-.3.45-.55.54a7.39,7.39,0,0,0-1.94,1.49c-.11.24-.43.17-.61.34s.17.32.34.3a6.29,6.29,0,0,0,2-.73,5.91,5.91,0,0,1,.71-.36.46.46,0,0,1,.59.31c0,.28-.27.43-.49.54a13.49,13.49,0,0,1-2.15.79c-.27-.08-.47.41-.17.49a2.63,2.63,0,0,0,1,0,14.22,14.22,0,0,0,2.79-1,.89.89,0,0,1,1,.41,1,1,0,0,1,0,1.06,3.9,3.9,0,0,1-1.45,1.71,5,5,0,0,0-1.24.59c-.32.1.16.54.23.19a1.08,1.08,0,0,1,.85-.35A2.32,2.32,0,0,0,28,28.26c.33-.26.65-.61,1.09-.61.25,0,.49.22.74.1a.43.43,0,0,1,.61.23c.11.31.43.45.68.62s.4.47.47.17,0-.53.31-.46.47.1.71.11a1.31,1.31,0,0,1,.77.55c.12.18.4.48.6.25s-.11-.44-.31-.52a6,6,0,0,1-.78-.64,2.22,2.22,0,0,1-.75-1.3,5.44,5.44,0,0,1,0-1.56.56.56,0,0,1,.8-.33,2.83,2.83,0,0,0,1.31.43,7.89,7.89,0,0,1,2.06.08c.66.21,1.13.76,1.76,1a.26.26,0,0,0,.38-.15.3.3,0,0,0-.11-.39,16.19,16.19,0,0,0-2.61-1.69.36.36,0,0,1-.06-.63.92.92,0,0,1,1.08.12,1.54,1.54,0,0,0,.8.25c.3-.09.16-.51-.11-.55a8.29,8.29,0,0,1-1.23-1.06,1.66,1.66,0,0,0-.82-.45,2.37,2.37,0,0,0-.53,0c-.17-.18,0-.46.27-.44a2.91,2.91,0,0,0,.66,0c.24,0,.49,0,.74,0s.6-.1.42-.34-.48-.15-.72-.24A9,9,0,0,0,35,20.42c-.3,0-.26-.41,0-.46s.32.07.49.09.57.06.85.12c.24-.11.05-.46-.16-.48a5.39,5.39,0,0,1-1.38-.83c-.47-.36-.9-.77-1.38-1.12-.18-.11-.46-.14-.51-.38s.24-.32.43-.26.5.21.77.27a1.88,1.88,0,0,0,.62.07c.25-.16-.11-.26-.24-.31a8.94,8.94,0,0,1-1-.66c-.26-.22.22-.32.38-.24s.31-.28.11-.38a4.25,4.25,0,0,1-.67-.43,3,3,0,0,0-1.34-.56A1.83,1.83,0,0,1,30.71,14a5.26,5.26,0,0,1-.44-.85Zm-1.79,3.06c.28,0,.24.52,0,.48S28.19,16.18,28.48,16.23Zm2.65.27c.28-.05.33.45.06.48S30.8,16.47,31.13,16.5Zm-.78.07c.28.05.23.54-.05.54s-.42.19-.63.08.07-.44.26-.5.28-.09.42-.12Zm1.79,0a.3.3,0,0,1-.11.56c-.26,0-.39-.4-.14-.51a.74.74,0,0,1,.25-.05Zm-3,.54a.4.4,0,0,1-.17.63c-.17.1-.41.33-.6.14s.16-.41.31-.53a1,1,0,0,1,.46-.24Zm2.24,1a.33.33,0,0,1-.17.61.28.28,0,0,1,0-.53Zm-.89.05c.26.12.06.56-.2.5s-.27-.52,0-.47A.51.51,0,0,0,30.48,18.2Zm1.92.25A.45.45,0,0,1,33,19a.54.54,0,0,1-.68.18c-.26,0-.44-.41-.2-.57A.58.58,0,0,1,32.4,18.45Zm-4.26.08c.24-.13.49.26.29.43a.4.4,0,0,1-.63.06c-.13-.21.08-.58.34-.49Zm-1.1.18a.8.8,0,0,1,.55.52.35.35,0,0,1-.58.24.55.55,0,0,1-.28-.65.29.29,0,0,1,.31-.11Zm6.59,1c.29-.08.5.39.25.56s-.68-.07-.56-.37a.38.38,0,0,1,.31-.19Zm-3.74.53c.24,0,.16.46-.06.44S29.64,20.26,29.89,20.28Zm-1.25.23c.2-.14.46.2.29.36S28.47,20.67,28.64,20.51Zm2,0a.91.91,0,0,1,.4.67.33.33,0,0,1-.6-.07.51.51,0,0,1,.2-.6Zm.69.41c.3-.07.19.55-.06.34a.25.25,0,0,1,.06-.34ZM27,21.4a.43.43,0,0,1,.55.23c0,.21-.22.33-.39.38a2.8,2.8,0,0,1-.84.21,1,1,0,0,1-.39-.62c.22-.2.54-.14.8-.19Zm6.76,1c.25-.12.53.28.31.47a.81.81,0,0,1-1.09.1c0-.27.23-.46.47-.5a1.08,1.08,0,0,1,.31-.07Zm1.42.31a.35.35,0,0,1,.31.57.63.63,0,0,1-.92.13c-.1-.24.11-.49.33-.57l.28-.13ZM28,23.13a.45.45,0,0,1,.47.5c.2.19-.14.54-.34.35a1.89,1.89,0,0,1-.23-.73c0-.06,0-.13.1-.12Zm2.05.15c.27-.12.63.21.48.49s-.53.15-.51-.11a1.2,1.2,0,0,1,0-.38Zm-1,.18a.37.37,0,0,1,.38.53C29.13,24,29,23.69,29,23.46Z"/></g></g></svg>